<svg xmlns="http://www.w3.org/2000/svg" viewBox="0 0 503 74"><g fill="#fff"><path d="m85.76 33-1-.06c-.85-6-2.34-5.73-3.94-10l-1 .23c-1.5 10.34 3.78 10.15 3.1 19.72l1 .3c1.82-1.7 11.1-11.7 5.5-23.9l-1 .2c.65 8.6-1.24 7.2-2.66 13.3v.2zm-5.55 3.92c-5.8 10.22.2 10-6.2 20.83l.7.7c.7-.25 16.9-5.1 16.9-22l-1-.12c-1.5 5.46-6.7 8.23-9.4 13.17l-.9-.47c2-6.5.3-7.7 1-12l-1.1-.1zM80.9 14l.9-.44C80.7 9.68 79.4 6.2 72 2.24l-.6.75c4.3 3.7 3.1 6.3 9.6 11h-.1zm1.8 4.36c-1.8-2.65-4.6-3.47-7.3-7.8l-.8.56c2.3 10.14 7.4 7.54 10.2 16.45l1-.1c1.2-2.22 4.2-16.1-4.5-21l-.8.6c3.9 4.85 2.8 7.7 3.4 11l-1.2.3zM70 62.6l-.62-.8c4.32-4.7 4-7 6.27-11 0 0-.54-.37-.84-.6C66.6 55.3 68 63 57.7 62.46c.16.4.35.95.35.95 7.07 4.1 19 7.4 28.68-9.1l-.87-.5c-6.1 6.5-9.8 4.9-15.8 8.8H70zm-23.85 1.55c-10.62-3.55-16.83 8.37-29.44 3.1l-.6.8C28.9 79.9 35.5 63.5 44.2 65a29.87 29.87 0 0 0-8.07 6.37c1 1 1.4 1.48 2.5 2.6 2.8-4.65 5.27-7.17 7.58-8.3 2.3 1.13 4.8 3.65 7.6 8.3l2.5-2.6c-2.3-2.57-5-4.73-8.1-6.37 8.7-1.5 15.3 14.9 28.1 3.06l-.6-.8c-12.6 5.26-18.8-6.66-29.5-3.1zm-11.83-.74.36-.9c-10.3.6-8.92-7.1-17.2-12.2l-.84.6c2.25 4 2 6.3 6.27 11l-.6.8c-6-3.9-9.7-2.3-15.7-8.8l-.9.5c9.7 16.4 21.6 13.1 28.7 9.1v-.1zM8.44 43.2l1-.3c-.68-9.58 4.6-9.4 3.1-19.73l-1-.23c-1.6 4.3-3.1 4-3.95 10l-1 .06c-1.5-6.2-3.4-4.8-2.7-13.4l-1-.26C-2.7 31.5 6.6 41.57 8.4 43.2h.04zm3-29.2C17.9 9.37 16.68 6.8 21 3l-.6-.75c-7.3 4-8.7 7.44-9.8 11.32l.84.43zm6.22 44.48.7-.7C11.92 46.93 18 47.13 12.1 36.9l-1 .18c.7 4.26-1.1 5.46.93 12l-.9.47c-2.62-4.94-7.9-7.7-9.38-13.17l-1 .13C.73 53.4 17 58.2 17.65 58.5v-.02zm-10-30.9c2.75-8.92 7.93-6.3 10.17-16.45l-.83-.57c-2.68 4.34-5.5 5.16-7.38 7.8l-1-.3c.6-3.3-.5-6.17 3.35-11l-.83-.6c-8.72 4.94-5.73 18.8-4.5 21l1.02.12zM46.16.42c-16.85 0-30.5 13.66-30.5 30.5s13.65 30.5 30.5 30.5 30.5-13.66 30.5-30.5S63 .42 46.16.42zM74.6 29.9h-6.1c-.23-5.23-2.3-10.2-5.83-14.06l4.33-4.3c4.67 5 7.37 11.52 7.6 18.36zM61.24 14.4c-3.86-3.53-8.83-5.6-14.06-5.83v-6.1c6.84.23 13.37 2.93 18.38 7.6l-4.32 4.33zm-11 16.52c0 2.25-1.82 4.07-4.07 4.07s-4.07-1.9-4.07-4.1 1.82-4.1 4.07-4.1c2.24 0 4.05 1.8 4.05 4h.02zm-5.1-6c-.9.14-1.75.48-2.5 1l-4.34-4.34a12.14 12.14 0 0 1 6.86-2.84l-.02 6.18zm-2.5 11c.75.52 1.6.86 2.5 1v6.14c-2.52-.2-4.92-1.2-6.85-2.84l4.3-4.3zm4.54 1c.9-.14 1.75-.48 2.5-1l4.32 4.3a12.084 12.084 0 0 1-6.86 2.85l.04-6.15zm2.5-11c-.75-.52-1.6-.86-2.5-1v-6.15c2.5.22 4.9 1.2 6.82 2.83l-4.32 4.32zm-4.54-9.22c-3.06.22-5.98 1.42-8.3 3.43L32.5 15.8a20.3 20.3 0 0 1 12.63-5.23v6.13zm-4 10.66c-.52.75-.86 1.6-1 2.5H34A12.1 12.1 0 0 1 36.84 23l4.3 4.36zm-1 4.54c.14.9.5 1.75 1 2.5l-4.34 4.35c-1.6-1.92-2.6-4.3-2.8-6.8l6.14-.05zm-3.3 9.74c2.32 2 5.23 3.22 8.3 3.43v6.12c-4.7-.3-9.16-2.1-12.64-5.2l4.34-4.4zm10.33 3.43c3.07-.2 5.98-1.42 8.3-3.43L59.8 46c-3.48 3.16-7.94 5-12.63 5.23v-6.16zm4-10.66c.5-.7.86-1.6 1-2.5h6.14c-.1 2.6-1.1 5-2.8 6.9l-4.3-4.4zm1-4.5c-.14-.9-.48-1.7-1-2.5l4.3-4.3c1.64 2 2.63 4.4 2.83 6.9l-6.13-.1zm3.3-9.7c-2.33-2-5.24-3.2-8.3-3.4v-6.1c4.7.3 9.15 2.1 12.63 5.2l-4.33 4.3zM45.14 8.6c-5.23.23-10.2 2.3-14.07 5.83l-4.3-4.3c5-4.67 11.53-7.37 18.37-7.6V8.6zm-9.74 13c-2 2.33-3.2 5.24-3.4 8.3h-6.15c.23-4.7 2.08-9.15 5.23-12.62l4.32 4.32zM32 31.94c.2 3.07 1.42 5.98 3.43 8.3l-4.33 4.32c-3.15-3.47-5-7.93-5.22-12.62H32zm-.9 15.5c3.86 3.54 8.84 5.6 14.07 5.83v6.1a28.358 28.358 0 0 1-18.38-7.6l4.3-4.33zm16.1 5.83c5.23-.23 10.2-2.3 14.07-5.83l4.3 4.32c-5 4.67-11.53 7.37-18.37 7.6v-6.1zm9.73-13c2-2.32 3.22-5.23 3.43-8.3h6.13c-.3 4.7-2.2 9.16-5.3 12.62l-4.3-4.4zm3.4-10.37c-.2-3.06-1.4-5.98-3.42-8.3l4.4-4.3c3.2 3.47 5 7.93 5.2 12.6h-6.1zm-35-18.34 4.33 4.3c-3.54 3.85-5.6 8.82-5.86 14.04h-6.1c.24-6.84 2.95-13.37 7.62-18.37v.03zm-7.62 20.4h6.1c.3 5.23 2.4 10.2 5.9 14.04l-4.3 4.3c-4.6-5-7.3-11.52-7.6-18.36v.02zM67 50.36 62.68 46a22.24 22.24 0 0 0 5.82-14.06h6.1A28.286 28.286 0 0 1 67 50.3v.06z"/><path d="m49.94 6.44 1.7-.56 1 .32.9-.73v-.25l-1.67-.83h-.45l-2 1-.56-.2-.24.3 1.1.9h.22zm12.7 3-.75-1.17-1.2-.08v.6l1.8.7.1-.1zm4.68 7.66-1.1-.67.15-1.15-4.75-4.94-3.22-.8-.32 1.37 1.46 1.1-.36 2.6 1.34.3.84 1 .24 1.8 1.36.6 1.32 2.1 1.84-.8L67.5 22l1.6-.66.1-.83-1.88-3.4zM64 34v.64l.94.82.43-.46v-.46l-.8-.57L64 34zm1.13-5.9.4-.32V26.6l-.7.36-.15.8L64 29.2l.12 1.46 1.6 1-.2-2.86-.4-.7zM46.7 32.2l-.2-.2-1.68.06-.4 1.08L43 34.66l1 .75 2.17-1.4.53-1.8zm16.42 11.7-.3.1.2.64-.42.62-.16 1.74.48.6h1.3l.47-.88-.5-1.9-1.1-.92zm-4.53-6.35.6-1.6.3 1.05.5-.17.2-.82.6.4 2.7-.8-.7-1.6-.9-.6-1-1.5 1.2-2.6.8-.3.7-1 .7-3.5-.4-1.3-.9-.2.3-1-.7-.2.3-.6-.2-.3-.8.4-1-1.7-.6-.1.1-.6-4.5-4.3-.2.3.4 1.5 4.6 5.7v1.8l1.8 1.2.5 2.5-.6 1.2-.8.2.6-1.8-1.4-1.3-.9.7-.3-.3.3-.7-1-1.3-2.8-.4-1.1 1.6-1-2.5-1 .2.66.34-.44 1-.8.1-1.57 1.62h-1.2l-.9-.5.27-.6 1.6-.9L51 23l-.36-.45-1.64 1.3-3.7-1.08-1.13.63-.32 1.53-5.2-1.35-4.45 2.3-.28.57-1-.16-.67 2.3-.18 1.7-1.7 2.3.13 2.3-2.25-1.8-.68.1L26 34.9l-.26 1.36.26 1.16-.6.6-2.62-1.2-.64.2-.2.56-.4.12-.36-.4h-.64l-.48 1.82.66 2 1.8 1.2.42-.78 1 1.55 2.3 1.1.76 1.5 2.57 1.8 1.43-.3 1.6.7 1.93-.8 1.5.2.4-.6L33.3 43l.7-.93-1.1-1.77.23-2.16-1.52-3.5-.2-1.64 1.4-.7 1.5-4h.7l.2 4.7-1.6-.1-.3 1.92.7.4.5-1.52 4.3.78-.1.44 1.7 1.7 2.8-2.78.9-1.78-.1-.56-.6.17v.56l-4.1 1.1 1.5-3 1.3.1 1.1.75.5-.1-.1-1.84 1.1-.44v-1.12l1.7-.3-.5-1.38.8-.35 1.2.63-1.1.48.7 1 .5-.4 1.2 1.4h.8l-.13.66.6.37-.7.9.9 1v1.1h.5l-1 1.7h-1.3l-2.1 3.6.4.4-.3.2v.5l.57.7-1.2.1.1 1.8 2.6-1.8 1.7.8.9-.2v-.5l.4-.5.55.6 1.14-.9.6.9-.8 1-1.87.8v.7l-1.7-.4-.7-.7h-1l-.6.4-1.5-.3-2.6 1.7-.9 1.6.7 1.7 5.23 3 1.75-.2-.4 1.5.8 1.3 4 3.4h.9l2.3-1.7 2.5-4.9-.7-.6 1.3-1.8-2.9-.7-.1-1 1.7-1 .24-1.9-.3-1.6H59l-.4 1.34-.2.4-2.3.6-2.8-1.6.5-.8 4.1 1.5 1.22-3.4-.83-.68-.6.1-1.9.72.2-.44 2.6-.8zm-6 1-.8.56-.9-.1v-.8l.5-.3 1.1.5.1.2zm1.7-.85-.9-.6-.4-1 .8-.53.6.76.3.8-.4.57zM180.9 2.08v52.18c0 10.58-7.7 19.72-34 19.72s-34-9.14-34-19.72V2.08h19.3V52.8c0 5.65 4.1 8.9 14.6 8.9s14.6-3.25 14.6-8.9V2.08h19.5zM216 24.3v47.54h-18.35V2.08h24l29.48 49.73V2.1h18.33v69.76h-24.14L216 24.3zM371.72 2.08h33.67c20 0 26.9 6.5 26.9 17.18v10.37c0 10.8-7 17.28-27 17.28h-21.6v25h-12V2.1zM405 10.15h-21.27v28.7H405c11.46 0 15.88-2.42 15.88-10.45v-7.8c-.05-7.66-4.46-10.45-15.88-10.45zM321.7.42c-24 0-33.66 6.8-33.66 18.42V55.1c0 11.62 9.64 18.4 33.66 18.4 24.02 0 33.66-6.78 33.66-18.4V18.82c0-11.62-9.63-18.4-33.66-18.4zm21.68 54.38c0 8.6-7 10.66-21.66 10.66s-21.66-2.07-21.66-10.66V19.13c0-8.6 7-10.66 21.66-10.66s21.66 2.07 21.66 10.66V54.8zm128.9 18.4c-8.8.03-17.55-1.2-26-3.67l2-7.33c7.95 1.96 16.1 2.94 24.3 2.94 14.95 0 18-2.84 18-10.8 0-9.42-.14-10.57-19.3-13.82-22.45-3.77-25.1-7.33-25.1-21.78 0-12.15 6.7-18 29.73-18 7.9 0 15.8.75 23.5 2.26l-1 7.75c-7.3-1.3-14.7-1.97-22.2-2-15.2 0-18 2.2-18 10.27 0 9.64 0 10.36 18.5 13.8 24.7 4.63 26 7.66 26 21.27 0 12.1-4.7 19.1-30.3 19.1z"/></g></svg>