<?xml version="1.0" encoding="utf-8"?>
<!-- Generator: Adobe Illustrator 25.4.1, SVG Export Plug-In . SVG Version: 6.00 Build 0)  -->
<svg version="1.1" id="Calque_1" xmlns="http://www.w3.org/2000/svg" xmlns:xlink="http://www.w3.org/1999/xlink" x="0px" y="0px"
	 viewBox="0 0 757.6 123.6" style="enable-background:new 0 0 757.6 123.6;" xml:space="preserve">
<style type="text/css">
	.st0{fill:#021710;}
	.st1{fill:#52B788;}
</style>
<g>
	<path class="st0" d="M174.8,0.3h82v19.9h-59.4v31.6h56.1v19.9h-56.1v32.1h59.4v19.9h-82V0.3z"/>
	<path class="st0" d="M265.7,33.5h20.4v11.1c2.3-4.2,5.7-7.4,10.2-9.7c4.5-2.3,9.6-3.4,15.3-3.4c6.5,0,12.4,1.4,17.6,4.3
		c5.2,2.9,9.2,6.9,12.1,12.1c2.9,5.2,4.3,11.1,4.3,17.7v58h-21.7V70.8c0-5.8-1.7-10.5-5.1-14.1c-3.4-3.5-7.8-5.3-13.2-5.3
		c-5.4,0-9.8,1.8-13.2,5.3c-3.4,3.5-5.1,8.2-5.1,14.1v52.8h-21.7V33.5z"/>
	<path class="st0" d="M348.1,33.5h23.7l21.4,58.8l21.4-58.8h23.7l-35.4,90.1h-19.2L348.1,33.5z"/>
	<path class="st0" d="M461.3,117.3c-7-4.2-12.5-9.9-16.4-17.1c-3.9-7.2-5.9-15.1-5.9-23.8c0-8.8,2-16.8,5.9-23.9
		c3.9-7.1,9.3-12.7,16.1-16.8c6.8-4.1,14.4-6.1,22.8-6.1c9,0,16.9,2,23.5,5.9c6.6,3.9,11.7,9.2,15.2,16c3.5,6.7,5.2,14.1,5.2,22.2
		c0,3.8-0.4,6.8-1.2,9.1h-64.9c0.7,6.6,3.2,11.9,7.6,15.9c4.4,4,9.9,6,16.4,6c4.9,0,9-1,12.5-3.1c3.5-2,6.3-4.9,8.4-8.5l17.6,8.6
		c-2.8,6.6-7.6,12-14.6,16c-7,4-15,6-24,6C476.4,123.6,468.3,121.5,461.3,117.3z M504.5,66.2c-0.6-5.5-2.7-10-6.5-13.5
		c-3.8-3.5-8.5-5.2-14.2-5.2c-5.5,0-10.2,1.6-14.1,4.9c-3.9,3.3-6.4,7.9-7.6,13.8H504.5z"/>
	<path class="st0" d="M538.2,33.5h20.4v12.6c2.2-4.9,5.4-8.3,9.4-10.4c4.1-2.1,9.1-3.1,14.9-3.1h5.3v19.2h-7.8
		c-6.2,0-11.2,1.9-14.9,5.8c-3.8,3.9-5.6,9.2-5.6,15.9v50.2h-21.7V33.5z"/>
	<path class="st0" d="M604.2,117.2c-6.9-4.3-11.8-10.2-14.7-17.7l16.1-8.3c2.4,4.9,5.7,8.6,9.7,11.3c4,2.7,8.5,4.1,13.3,4.1
		c4.2,0,7.5-0.9,9.9-2.6c2.4-1.7,3.6-4.1,3.6-7c0-2.5-1-4.7-3-6.4c-2-1.7-4.6-2.8-7.8-3.4l-14.7-2.5c-7.6-2-13.5-5.4-17.6-10.2
		c-4.1-4.8-6.2-10.5-6.2-17c0-5.4,1.4-10.2,4.3-14.5c2.9-4.2,6.9-7.5,12-9.9c5.1-2.3,11-3.5,17.5-3.5c8.3,0,15.6,2,21.9,5.9
		c6.3,3.9,10.9,9.4,13.7,16.3L646,60.2c-1.8-3.9-4.5-7-8.1-9.3c-3.6-2.3-7.7-3.5-12.1-3.5c-3.6,0-6.5,0.8-8.7,2.5
		c-2.2,1.7-3.2,3.8-3.2,6.5c0,4.9,3.6,8.1,10.9,9.8l14.4,2.6c7.6,2.1,13.5,5.5,17.7,10.3c4.2,4.7,6.3,10.4,6.3,16.9
		c0,5.4-1.5,10.2-4.4,14.4c-2.9,4.2-7,7.5-12.3,9.8s-11.4,3.5-18.4,3.5C619.1,123.6,611.1,121.5,604.2,117.2z"/>
	<path class="st0" d="M692.3,117.3c-7-4.2-12.5-9.9-16.4-17.1c-3.9-7.2-5.9-15.1-5.9-23.8c0-8.8,2-16.8,5.9-23.9
		c3.9-7.1,9.3-12.7,16.1-16.8c6.8-4.1,14.4-6.1,22.8-6.1c9,0,16.9,2,23.5,5.9c6.6,3.9,11.7,9.2,15.2,16c3.5,6.7,5.2,14.1,5.2,22.2
		c0,3.8-0.4,6.8-1.2,9.1h-64.9c0.7,6.6,3.2,11.9,7.6,15.9c4.4,4,9.9,6,16.4,6c4.9,0,9-1,12.5-3.1c3.5-2,6.3-4.9,8.4-8.5l17.6,8.6
		c-2.8,6.6-7.6,12-14.6,16c-7,4-15,6-24,6C707.4,123.6,699.3,121.5,692.3,117.3z M735.4,66.2c-0.6-5.5-2.7-10-6.5-13.5
		c-3.8-3.5-8.5-5.2-14.2-5.2c-5.5,0-10.2,1.6-14.1,4.9c-3.9,3.3-6.4,7.9-7.6,13.8H735.4z"/>
	<g>
		<g>
			<g>
				<path class="st1" d="M62.8,0C28.7,0,1,27.7,1,61.8c0,34.1,27.7,61.8,61.8,61.8c34.1,0,61.8-27.7,61.8-61.8V0H62.8z M101.1,61.8
					c0,21.1-17.2,38.3-38.3,38.3c-7.1,0-14.1-2-20.1-5.7l11-11c1.6,0.4,3.3,0.7,5,0.7c10.2,0,18.5-8.3,18.5-18.5
					c0-10.2-8.3-18.5-18.5-18.5c-10.2,0-18.5,8.3-18.5,18.5c0,1.6,0.2,3.3,0.7,5L29.9,81.4c-3.5-5.9-5.4-12.7-5.4-19.6
					c0-21.1,17.2-38.3,38.3-38.3h38.3V61.8z"/>
			</g>
		</g>
	</g>
</g>
</svg>
